PageBot-Book.ufo
<glyph name="numbersign" format="2">
  <advance width="544"/>
  <unicode hex="0023"/>
  <outline>
    <contour>
      <point x="47" y="120" type="line"/>
      <point x="153" y="120" type="line"/>
      <point x="134" y="-33" type="line"/>
      <point x="182" y="-33" type="line"/>
      <point x="201" y="120" type="line"/>
      <point x="317" y="120" type="line"/>
      <point x="298" y="-33" type="line"/>
      <point x="346" y="-33" type="line"/>
      <point x="365" y="120" type="line"/>
      <point x="482" y="120" type="line"/>
      <point x="482" y="171" type="line"/>
      <point x="372" y="171" type="line"/>
      <point x="389" y="306" type="line"/>
      <point x="497" y="306" type="line"/>
      <point x="497" y="357" type="line"/>
      <point x="395" y="357" type="line"/>
      <point x="414" y="509" type="line"/>
      <point x="366" y="509" type="line"/>
      <point x="347" y="357" type="line"/>
      <point x="231" y="357" type="line"/>
      <point x="250" y="509" type="line"/>
      <point x="202" y="509" type="line"/>
      <point x="183" y="357" type="line"/>
      <point x="63" y="357" type="line"/>
      <point x="63" y="306" type="line"/>
      <point x="177" y="306" type="line"/>
      <point x="160" y="171" type="line"/>
      <point x="47" y="171" type="line"/>
    </contour>
    <contour>
      <point x="208" y="171" type="line"/>
      <point x="225" y="306" type="line"/>
      <point x="341" y="306" type="line"/>
      <point x="324" y="171" type="line"/>
    </contour>
  </outline>
</glyph>
<glyph name="dollar" format="2">
  <advance width="495"/>
  <unicode hex="0024"/>
  <outline>
    <contour>
      <point x="228" y="-93" type="line"/>
      <point x="277" y="-93" type="line"/>
      <point x="277" y="-14" type="line"/>
      <point x="376" y="-1"/>
      <point x="439" y="69"/>
      <point x="439" y="166" type="curve" smooth="yes"/>
      <point x="439" y="260"/>
      <point x="390" y="313"/>
      <point x="277" y="358" type="curve"/>
      <point x="277" y="621" type="line"/>
      <point x="332" y="618"/>
      <point x="380" y="596"/>
      <point x="422" y="559" type="curve"/>
      <point x="422" y="625" type="line"/>
      <point x="378" y="653"/>
      <point x="329" y="670"/>
      <point x="277" y="673" type="curve"/>
      <point x="277" y="751" type="line"/>
      <point x="228" y="751" type="line"/>
      <point x="228" y="672" type="line"/>
      <point x="128" y="662"/>
      <point x="67" y="595"/>
      <point x="67" y="502" type="curve" smooth="yes"/>
      <point x="67" y="409"/>
      <point x="117" y="360"/>
      <point x="228" y="316" type="curve"/>
      <point x="228" y="36" type="line"/>
      <point x="166" y="39"/>
      <point x="109" y="62"/>
      <point x="57" y="103" type="curve"/>
      <point x="57" y="39" type="line"/>
      <point x="107" y="5"/>
      <point x="165" y="-13"/>
      <point x="228" y="-16" type="curve"/>
    </contour>
    <contour>
      <point x="122" y="503" type="curve" smooth="yes"/>
      <point x="122" y="567"/>
      <point x="162" y="610"/>
      <point x="228" y="620" type="curve"/>
      <point x="228" y="378" type="line"/>
      <point x="155" y="410"/>
      <point x="122" y="443"/>
    </contour>
    <contour>
      <point x="383" y="162" type="curve" smooth="yes"/>
      <point x="383" y="98"/>
      <point x="342" y="52"/>
      <point x="277" y="39" type="curve"/>
      <point x="277" y="296" type="line"/>
      <point x="351" y="262"/>
      <point x="383" y="225"/>
    </contour>
  </outline>
</glyph>
<glyph name="percent" format="2">
  <advance width="843"/>
  <unicode hex="0025"/>
  <outline>
    <contour>
      <point x="199" y="352" type="curve" smooth="yes"/>
      <point x="299" y="352"/>
      <point x="359" y="425"/>
      <point x="359" y="542" type="curve" smooth="yes"/>
      <point x="359" y="655"/>
      <point x="299" y="728"/>
      <point x="199" y="728" type="curve" smooth="yes"/>
      <point x="99" y="728"/>
      <point x="39" y="655"/>
      <point x="39" y="540" type="curve" smooth="yes"/>
      <point x="39" y="425"/>
      <point x="99" y="352"/>
    </contour>
    <contour>
      <point x="253" y="0" type="line"/>
      <point x="301" y="0" type="line"/>
      <point x="570" y="722" type="line"/>
      <point x="522" y="722" type="line"/>
    </contour>
    <contour>
      <point x="199" y="397" type="curve" smooth="yes"/>
      <point x="130" y="397"/>
      <point x="87" y="454"/>
      <point x="87" y="542" type="curve" smooth="yes"/>
      <point x="87" y="627"/>
      <point x="130" y="683"/>
      <point x="199" y="683" type="curve" smooth="yes"/>
      <point x="267" y="683"/>
      <point x="310" y="627"/>
      <point x="310" y="540" type="curve" smooth="yes"/>
      <point x="310" y="453"/>
      <point x="267" y="397"/>
    </contour>
    <contour>
      <point x="644" y="-8" type="curve" smooth="yes"/>
      <point x="744" y="-8"/>
      <point x="804" y="65"/>
      <point x="804" y="182" type="curve" smooth="yes"/>
      <point x="804" y="295"/>
      <point x="744" y="368"/>
      <point x="644" y="368" type="curve" smooth="yes"/>
      <point x="544" y="368"/>
      <point x="484" y="295"/>
      <point x="484" y="180" type="curve" smooth="yes"/>
      <point x="484" y="65"/>
      <point x="544" y="-8"/>
    </contour>
    <contour>
      <point x="644" y="37" type="curve" smooth="yes"/>
      <point x="575" y="37"/>
      <point x="532" y="94"/>
      <point x="532" y="182" type="curve" smooth="yes"/>
      <point x="532" y="267"/>
      <point x="575" y="323"/>
      <point x="644" y="323" type="curve" smooth="yes"/>
      <point x="712" y="323"/>
      <point x="755" y="267"/>
      <point x="755" y="180" type="curve" smooth="yes"/>
      <point x="755" y="93"/>
      <point x="712" y="37"/>
    </contour>
  </outline>
</glyph>
<glyph name="ampersand" format="2">
  <advance width="578"/>
  <unicode hex="0026"/>
  <outline>
    <contour>
      <point x="224" y="-14" type="curve" smooth="yes"/>
      <point x="303" y="-14"/>
      <point x="360" y="23"/>
      <point x="402" y="70" type="curve"/>
      <point x="462" y="0" type="line"/>
      <point x="536" y="0" type="line"/>
      <point x="437" y="116" type="line"/>
      <point x="477" y="178"/>
      <point x="498" y="267"/>
      <point x="498" y="373" type="curve"/>
      <point x="448" y="373" type="line"/>
      <point x="448" y="279"/>
      <point x="432" y="208"/>
      <point x="402" y="156" type="curve"/>
      <point x="209" y="383" type="line" smooth="yes"/>
      <point x="173" y="426"/>
      <point x="153" y="469"/>
      <point x="153" y="511" type="curve" smooth="yes"/>
      <point x="153" y="578"/>
      <point x="202" y="622"/>
      <point x="276" y="622" type="curve" smooth="yes"/>
      <point x="328" y="622"/>
      <point x="380" y="597"/>
      <point x="429" y="550" type="curve"/>
      <point x="429" y="611" type="line"/>
      <point x="382" y="652"/>
      <point x="327" y="672"/>
      <point x="272" y="672" type="curve" smooth="yes"/>
      <point x="166" y="672"/>
      <point x="97" y="609"/>
      <point x="97" y="513" type="curve" smooth="yes"/>
      <point x="97" y="467"/>
      <point x="113" y="419"/>
      <point x="146" y="374" type="curve"/>
      <point x="66" y="334"/>
      <point x="20" y="267"/>
      <point x="20" y="180" type="curve" smooth="yes"/>
      <point x="20" y="66"/>
      <point x="97" y="-14"/>
    </contour>
    <contour>
      <point x="77" y="182" type="curve" smooth="yes"/>
      <point x="77" y="250"/>
      <point x="110" y="303"/>
      <point x="177" y="337" type="curve"/>
      <point x="370" y="108" type="line"/>
      <point x="338" y="68"/>
      <point x="292" y="36"/>
      <point x="229" y="36" type="curve" smooth="yes"/>
      <point x="136" y="36"/>
      <point x="77" y="95"/>
    </contour>
  </outline>
</glyph>
<glyph name="parenleft" format="2">
  <advance width="310"/>
  <unicode hex="0028"/>
  <outline>
    <contour>
      <point x="227" y="-218" type="curve"/>
      <point x="292" y="-218" type="line"/>
      <point x="182" y="-84"/>
      <point x="114" y="89"/>
      <point x="114" y="252" type="curve" smooth="yes"/>
      <point x="114" y="414"/>
      <point x="182" y="588"/>
      <point x="292" y="722" type="curve"/>
      <point x="227" y="722" type="line"/>
      <point x="124" y="595"/>
      <point x="59" y="421"/>
      <point x="59" y="252" type="curve" smooth="yes"/>
      <point x="59" y="84"/>
      <point x="124" y="-90"/>
    </contour>
  </outline>
</glyph>
<glyph name="parenright" format="2">
  <advance width="310"/>
  <unicode hex="0029"/>
  <outline>
    <contour>
      <point x="18" y="-218" type="curve"/>
      <point x="82" y="-218" type="line"/>
      <point x="186" y="-90"/>
      <point x="251" y="84"/>
      <point x="251" y="252" type="curve" smooth="yes"/>
      <point x="251" y="421"/>
      <point x="186" y="595"/>
      <point x="82" y="722" type="curve"/>
      <point x="18" y="722" type="line"/>
      <point x="127" y="588"/>
      <point x="196" y="414"/>
      <point x="196" y="252" type="curve" smooth="yes"/>
      <point x="196" y="89"/>
      <point x="127" y="-84"/>
    </contour>
  </outline>
</glyph>
<glyph name="plus" format="2">
  <advance width="543"/>
  <unicode hex="002B"/>
  <outline>
    <contour>
      <point x="247" y="71" type="line"/>
      <point x="296" y="71" type="line"/>
      <point x="296" y="265" type="line"/>
      <point x="483" y="265" type="line"/>
      <point x="483" y="313" type="line"/>
      <point x="296" y="313" type="line"/>
      <point x="296" y="506" type="line"/>
      <point x="247" y="506" type="line"/>
      <point x="247" y="313" type="line"/>
      <point x="60" y="313" type="line"/>
      <point x="60" y="265" type="line"/>
      <point x="247" y="265" type="line"/>
    </contour>
  </outline>
</glyph>
<glyph name="comma" format="2">
  <advance width="178"/>
  <unicode hex="002C"/>
  <outline>
    <contour>
      <point x="127" y="77" type="line"/>
      <point x="74" y="77" type="line"/>
      <point x="74" y="10" type="line" smooth="yes"/>
      <point x="74" y="-37"/>
      <point x="63" y="-73"/>
      <point x="36" y="-113" type="curve"/>
      <point x="73" y="-134" type="line"/>
      <point x="109" y="-92"/>
      <point x="127" y="-41"/>
      <point x="127" y="12" type="curve" smooth="yes"/>
    </contour>
  </outline>
</glyph>
<glyph name="zero" format="2">
  <advance width="568"/>
  <unicode hex="0030"/>
  <outline>
    <contour>
      <point x="284" y="-13" type="curve" smooth="yes"/>
      <point x="439" y="-13"/>
      <point x="515" y="119"/>
      <point x="515" y="329" type="curve" smooth="yes"/>
      <point x="515" y="540"/>
      <point x="439" y="671"/>
      <point x="284" y="671" type="curve" smooth="yes"/>
      <point x="129" y="671"/>
      <point x="54" y="539"/>
      <point x="54" y="327" type="curve" smooth="yes"/>
      <point x="54" y="118"/>
      <point x="129" y="-13"/>
    </contour>
    <contour>
      <point x="284" y="38" type="curve" smooth="yes"/>
      <point x="176" y="38"/>
      <point x="111" y="134"/>
      <point x="111" y="329" type="curve" smooth="yes"/>
      <point x="111" y="525"/>
      <point x="176" y="620"/>
      <point x="284" y="620" type="curve" smooth="yes"/>
      <point x="392" y="620"/>
      <point x="457" y="524"/>
      <point x="457" y="327" type="curve" smooth="yes"/>
      <point x="457" y="133"/>
      <point x="392" y="38"/>
    </contour>
  </outline>
</glyph>
<glyph name="two" format="2">
  <advance width="483"/>
  <unicode hex="0032"/>
  <outline>
    <contour>
      <point x="54" y="0" type="line"/>
      <point x="431" y="0" type="line"/>
      <point x="431" y="56" type="line"/>
      <point x="100" y="57" type="line"/>
      <point x="207" y="144" type="line" smooth="yes"/>
      <point x="340" y="256"/>
      <point x="429" y="338"/>
      <point x="429" y="476" type="curve" smooth="yes"/>
      <point x="429" y="593"/>
      <point x="352" y="670"/>
      <point x="227" y="670" type="curve" smooth="yes"/>
      <point x="163" y="670"/>
      <point x="107" y="653"/>
      <point x="55" y="616" type="curve"/>
      <point x="55" y="554" type="line"/>
      <point x="105" y="598"/>
      <point x="159" y="618"/>
      <point x="226" y="618" type="curve" smooth="yes"/>
      <point x="314" y="618"/>
      <point x="373" y="559"/>
      <point x="373" y="471" type="curve" smooth="yes"/>
      <point x="373" y="355"/>
      <point x="292" y="277"/>
      <point x="162" y="173" type="curve" smooth="yes"/>
      <point x="54" y="78" type="line"/>
    </contour>
  </outline>
</glyph>
<glyph name="three" format="2">
  <advance width="486"/>
  <unicode hex="0033"/>
  <outline>
    <contour>
      <point x="238" y="-12" type="curve" smooth="yes"/>
      <point x="363" y="-12"/>
      <point x="440" y="57"/>
      <point x="440" y="168" type="curve" smooth="yes"/>
      <point x="440" y="264"/>
      <point x="377" y="324"/>
      <point x="282" y="339" type="curve"/>
      <point x="377" y="359"/>
      <point x="428" y="421"/>
      <point x="428" y="508" type="curve" smooth="yes"/>
      <point x="428" y="601"/>
      <point x="357" y="670"/>
      <point x="237" y="670" type="curve" smooth="yes"/>
      <point x="177" y="670"/>
      <point x="121" y="653"/>
      <point x="74" y="617" type="curve"/>
      <point x="74" y="557" type="line"/>
      <point x="119" y="597"/>
      <point x="175" y="619"/>
      <point x="237" y="619" type="curve" smooth="yes"/>
      <point x="312" y="619"/>
      <point x="371" y="576"/>
      <point x="371" y="501" type="curve" smooth="yes"/>
      <point x="371" y="412"/>
      <point x="302" y="363"/>
      <point x="188" y="363" type="curve" smooth="yes"/>
      <point x="161" y="363" type="line"/>
      <point x="161" y="310" type="line"/>
      <point x="191" y="310" type="line" smooth="yes"/>
      <point x="312" y="310"/>
      <point x="384" y="263"/>
      <point x="383" y="171" type="curve" smooth="yes"/>
      <point x="383" y="89"/>
      <point x="325" y="39"/>
      <point x="234" y="39" type="curve" smooth="yes"/>
      <point x="166" y="39"/>
      <point x="97" y="68"/>
      <point x="45" y="116" type="curve"/>
      <point x="45" y="53" type="line"/>
      <point x="102" y="10"/>
      <point x="166" y="-12"/>
    </contour>
  </outline>
</glyph>
<glyph name="four" format="2">
  <advance width="542"/>
  <unicode hex="0034"/>
  <outline>
    <contour>
      <point x="347" y="0" type="line"/>
      <point x="403" y="0" type="line"/>
      <point x="403" y="184" type="line"/>
      <point x="501" y="184" type="line"/>
      <point x="501" y="234" type="line"/>
      <point x="403" y="234" type="line"/>
      <point x="403" y="670" type="line"/>
      <point x="342" y="670" type="line"/>
      <point x="43" y="225" type="line"/>
      <point x="43" y="184" type="line"/>
      <point x="347" y="184" type="line"/>
    </contour>
    <contour>
      <point x="347" y="234" type="line"/>
      <point x="105" y="234" type="line"/>
      <point x="347" y="591" type="line"/>
    </contour>
  </outline>
</glyph>
<glyph name="five" format="2">
  <advance width="506"/>
  <unicode hex="0035"/>
  <outline>
    <contour>
      <point x="237" y="-12" type="curve" smooth="yes"/>
      <point x="366" y="-12"/>
      <point x="452" y="72"/>
      <point x="452" y="194" type="curve" smooth="yes"/>
      <point x="452" y="318"/>
      <point x="365" y="393"/>
      <point x="227" y="393" type="curve" smooth="yes"/>
      <point x="196" y="393"/>
      <point x="166" y="391"/>
      <point x="133" y="386" type="curve"/>
      <point x="153" y="604" type="line"/>
      <point x="431" y="604" type="line"/>
      <point x="431" y="658" type="line"/>
      <point x="103" y="658" type="line"/>
      <point x="76" y="326" type="line"/>
      <point x="131" y="335"/>
      <point x="173" y="339"/>
      <point x="219" y="339" type="curve" smooth="yes"/>
      <point x="326" y="339"/>
      <point x="394" y="285"/>
      <point x="394" y="191" type="curve" smooth="yes"/>
      <point x="394" y="92"/>
      <point x="322" y="40"/>
      <point x="235" y="40" type="curve" smooth="yes"/>
      <point x="162" y="40"/>
      <point x="104" y="67"/>
      <point x="55" y="119" type="curve"/>
      <point x="55" y="54" type="line"/>
      <point x="107" y="9"/>
      <point x="164" y="-12"/>
    </contour>
  </outline>
</glyph>
<glyph name="six" format="2">
  <advance width="533"/>
  <unicode hex="0036"/>
  <outline>
    <contour>
      <point x="264" y="-12" type="curve" smooth="yes"/>
      <point x="383" y="-12"/>
      <point x="479" y="70"/>
      <point x="479" y="212" type="curve" smooth="yes"/>
      <point x="479" y="336"/>
      <point x="392" y="421"/>
      <point x="277" y="421" type="curve" smooth="yes"/>
      <point x="210" y="421"/>
      <point x="146" y="390"/>
      <point x="112" y="330" type="curve"/>
      <point x="126" y="518"/>
      <point x="201" y="619"/>
      <point x="322" y="619" type="curve" smooth="yes"/>
      <point x="368" y="619"/>
      <point x="418" y="604"/>
      <point x="453" y="586" type="curve"/>
      <point x="453" y="643" type="line"/>
      <point x="415" y="659"/>
      <point x="365" y="670"/>
      <point x="320" y="670" type="curve" smooth="yes"/>
      <point x="153" y="670"/>
      <point x="54" y="532"/>
      <point x="54" y="260" type="curve" smooth="yes"/>
      <point x="54" y="72"/>
      <point x="144" y="-12"/>
    </contour>
    <contour>
      <point x="264" y="38" type="curve" smooth="yes"/>
      <point x="169" y="38"/>
      <point x="111" y="118"/>
      <point x="111" y="237" type="curve" smooth="yes"/>
      <point x="114" y="312"/>
      <point x="186" y="371"/>
      <point x="270" y="371" type="curve" smooth="yes"/>
      <point x="362" y="371"/>
      <point x="423" y="297"/>
      <point x="423" y="209" type="curve" smooth="yes"/>
      <point x="423" y="110"/>
      <point x="359" y="38"/>
    </contour>
  </outline>
</glyph>
<glyph name="eight" format="2">
  <advance width="518"/>
  <unicode hex="0038"/>
  <outline>
    <contour>
      <point x="259" y="-13" type="curve" smooth="yes"/>
      <point x="390" y="-13"/>
      <point x="463" y="65"/>
      <point x="463" y="165" type="curve" smooth="yes"/>
      <point x="463" y="247"/>
      <point x="411" y="303"/>
      <point x="322" y="342" type="curve"/>
      <point x="405" y="378"/>
      <point x="451" y="433"/>
      <point x="451" y="508" type="curve" smooth="yes"/>
      <point x="451" y="599"/>
      <point x="377" y="671"/>
      <point x="258" y="671" type="curve" smooth="yes"/>
      <point x="140" y="671"/>
      <point x="67" y="597"/>
      <point x="67" y="500" type="curve" smooth="yes"/>
      <point x="67" y="423"/>
      <point x="113" y="373"/>
      <point x="194" y="337" type="curve"/>
      <point x="106" y="300"/>
      <point x="55" y="242"/>
      <point x="55" y="160" type="curve" smooth="yes"/>
      <point x="55" y="64"/>
      <point x="129" y="-13"/>
    </contour>
    <contour>
      <point x="249" y="369" type="line" smooth="yes"/>
      <point x="173" y="396"/>
      <point x="124" y="438"/>
      <point x="124" y="502" type="curve" smooth="yes"/>
      <point x="124" y="570"/>
      <point x="180" y="622"/>
      <point x="258" y="622" type="curve" smooth="yes"/>
      <point x="338" y="622"/>
      <point x="393" y="570"/>
      <point x="393" y="503" type="curve" smooth="yes"/>
      <point x="393" y="437"/>
      <point x="345" y="390"/>
      <point x="265" y="364" type="curve"/>
    </contour>
    <contour>
      <point x="111" y="163" type="curve" smooth="yes"/>
      <point x="111" y="236"/>
      <point x="165" y="286"/>
      <point x="251" y="315" type="curve"/>
      <point x="268" y="308" type="line" smooth="yes"/>
      <point x="353" y="277"/>
      <point x="406" y="234"/>
      <point x="406" y="164" type="curve" smooth="yes"/>
      <point x="406" y="93"/>
      <point x="352" y="36"/>
      <point x="258" y="36" type="curve" smooth="yes"/>
      <point x="169" y="36"/>
      <point x="111" y="94"/>
    </contour>
  </outline>
</glyph>
<glyph name="nine" format="2">
  <advance width="533"/>
  <unicode hex="0039"/>
  <outline>
    <contour>
      <point x="213" y="-12" type="curve" smooth="yes"/>
      <point x="380" y="-12"/>
      <point x="480" y="117"/>
      <point x="480" y="399" type="curve" smooth="yes"/>
      <point x="480" y="585"/>
      <point x="389" y="670"/>
      <point x="269" y="670" type="curve" smooth="yes"/>
      <point x="149" y="670"/>
      <point x="54" y="588"/>
      <point x="54" y="447" type="curve" smooth="yes"/>
      <point x="54" y="322"/>
      <point x="141" y="238"/>
      <point x="256" y="238" type="curve" smooth="yes"/>
      <point x="323" y="238"/>
      <point x="387" y="268"/>
      <point x="420" y="329" type="curve"/>
      <point x="407" y="134"/>
      <point x="336" y="39"/>
      <point x="210" y="39" type="curve" smooth="yes"/>
      <point x="164" y="39"/>
      <point x="115" y="55"/>
      <point x="80" y="73" type="curve"/>
      <point x="80" y="14" type="line"/>
      <point x="117" y="-1"/>
      <point x="168" y="-12"/>
    </contour>
    <contour>
      <point x="262" y="286" type="curve" smooth="yes"/>
      <point x="171" y="286"/>
      <point x="110" y="361"/>
      <point x="110" y="449" type="curve" smooth="yes"/>
      <point x="110" y="548"/>
      <point x="174" y="621"/>
      <point x="268" y="621" type="curve" smooth="yes"/>
      <point x="364" y="621"/>
      <point x="421" y="540"/>
      <point x="421" y="422" type="curve" smooth="yes"/>
      <point x="418" y="346"/>
      <point x="347" y="286"/>
    </contour>
  </outline>
</glyph>
<glyph name="equal" format="2">
  <advance width="543"/>
  <unicode hex="003D"/>
  <outline>
    <contour>
      <point x="60" y="334" type="line"/>
      <point x="483" y="334" type="line"/>
      <point x="483" y="382" type="line"/>
      <point x="60" y="382" type="line"/>
    </contour>
    <contour>
      <point x="60" y="189" type="line"/>
      <point x="483" y="189" type="line"/>
      <point x="483" y="237" type="line"/>
      <point x="60" y="237" type="line"/>
    </contour>
  </outline>
</glyph>
<glyph name="greater" format="2">
  <advance width="434"/>
  <unicode hex="003E"/>
  <outline>
    <contour>
      <point x="60" y="80" type="line"/>
      <point x="138" y="80" type="line"/>
      <point x="374" y="282" type="line"/>
      <point x="138" y="484" type="line"/>
      <point x="60" y="484" type="line"/>
      <point x="295" y="282" type="line"/>
    </contour>
  </outline>
</glyph>
<glyph name="question" format="2">
  <advance width="447"/>
  <unicode hex="003F"/>
  <outline>
    <contour>
      <point x="176" y="176" type="curve"/>
      <point x="229" y="176" type="line"/>
      <point x="229" y="248"/>
      <point x="256" y="298"/>
      <point x="314" y="350" type="curve" smooth="yes"/>
      <point x="382" y="410"/>
      <point x="407" y="464"/>
      <point x="407" y="541" type="curve" smooth="yes"/>
      <point x="407" y="644"/>
      <point x="329" y="722"/>
      <point x="199" y="722" type="curve" smooth="yes"/>
      <point x="142" y="722"/>
      <point x="82" y="702"/>
      <point x="40" y="670" type="curve"/>
      <point x="40" y="611" type="line"/>
      <point x="77" y="650"/>
      <point x="135" y="673"/>
      <point x="193" y="673" type="curve" smooth="yes"/>
      <point x="290" y="673"/>
      <point x="350" y="616"/>
      <point x="350" y="537" type="curve" smooth="yes"/>
      <point x="350" y="471"/>
      <point x="327" y="426"/>
      <point x="274" y="378" type="curve" smooth="yes"/>
      <point x="201" y="312"/>
      <point x="176" y="252"/>
    </contour>
    <contour>
      <point x="173" y="0" type="line"/>
      <point x="233" y="0" type="line"/>
      <point x="233" y="60" type="line"/>
      <point x="173" y="60" type="line"/>
    </contour>
  </outline>
</glyph>
<glyph name="at" format="2">
  <advance width="791"/>
  <unicode hex="0040"/>
  <outline>
    <contour>
      <point x="387" y="-70" type="curve" smooth="yes"/>
      <point x="447" y="-70"/>
      <point x="508" y="-56"/>
      <point x="565" y="-30" type="curve"/>
      <point x="565" y="15" type="line"/>
      <point x="510" y="-15"/>
      <point x="449" y="-30"/>
      <point x="387" y="-30" type="curve" smooth="yes"/>
      <point x="208" y="-30"/>
      <point x="88" y="110"/>
      <point x="88" y="276" type="curve" smooth="yes"/>
      <point x="88" y="442"/>
      <point x="210" y="584"/>
      <point x="394" y="584" type="curve" smooth="yes"/>
      <point x="579" y="584"/>
      <point x="703" y="458"/>
      <point x="703" y="308" type="curve" smooth="yes"/>
      <point x="703" y="209"/>
      <point x="666" y="146"/>
      <point x="601" y="146" type="curve" smooth="yes"/>
      <point x="541" y="146"/>
      <point x="507" y="194"/>
      <point x="517" y="275" type="curve" smooth="yes"/>
      <point x="539" y="445" type="line"/>
      <point x="507" y="453"/>
      <point x="469" y="458"/>
      <point x="439" y="458" type="curve" smooth="yes"/>
      <point x="315" y="458"/>
      <point x="222" y="375"/>
      <point x="222" y="248" type="curve" smooth="yes"/>
      <point x="222" y="160"/>
      <point x="272" y="107"/>
      <point x="349" y="107" type="curve" smooth="yes"/>
      <point x="396" y="107"/>
      <point x="452" y="132"/>
      <point x="481" y="210" type="curve"/>
      <point x="495" y="137"/>
      <point x="543" y="107"/>
      <point x="600" y="107" type="curve" smooth="yes"/>
      <point x="689" y="107"/>
      <point x="746" y="189"/>
      <point x="746" y="309" type="curve" smooth="yes"/>
      <point x="746" y="498"/>
      <point x="584" y="625"/>
      <point x="394" y="625" type="curve" smooth="yes"/>
      <point x="206" y="625"/>
      <point x="45" y="484"/>
      <point x="45" y="275" type="curve" smooth="yes"/>
      <point x="45" y="68"/>
      <point x="202" y="-70"/>
    </contour>
    <contour>
      <point x="356" y="147" type="curve" smooth="yes"/>
      <point x="300" y="147"/>
      <point x="266" y="188"/>
      <point x="266" y="250" type="curve" smooth="yes"/>
      <point x="266" y="352"/>
      <point x="341" y="419"/>
      <point x="436" y="419" type="curve" smooth="yes"/>
      <point x="456" y="419"/>
      <point x="474" y="417"/>
      <point x="491" y="413" type="curve"/>
      <point x="484" y="359" type="line" smooth="yes"/>
      <point x="458" y="161"/>
      <point x="399" y="147"/>
    </contour>
  </outline>
</glyph>
<glyph name="A" format="2">
  <advance width="622"/>
  <unicode hex="0041"/>
  <outline>
    <contour>
      <point x="22" y="0" type="line"/>
      <point x="78" y="0" type="line"/>
      <point x="166" y="225" type="line"/>
      <point x="452" y="225" type="line"/>
      <point x="539" y="0" type="line"/>
      <point x="599" y="0" type="line"/>
      <point x="337" y="667" type="line"/>
      <point x="283" y="667" type="line"/>
    </contour>
    <contour>
      <point x="184" y="275" type="line"/>
      <point x="290" y="547" type="line"/>
      <point x="309" y="600" type="line"/>
      <point x="327" y="547" type="line"/>
      <point x="433" y="275" type="line"/>
    </contour>
  </outline>
</glyph>
<glyph name="B" format="2">
  <advance width="511"/>
  <unicode hex="0042"/>
  <outline>
    <contour>
      <point x="76" y="0" type="line"/>
      <point x="251" y="0" type="line" smooth="yes"/>
      <point x="395" y="0"/>
      <point x="460" y="66"/>
      <point x="460" y="176" type="curve" smooth="yes"/>
      <point x="460" y="254"/>
      <point x="423" y="319"/>
      <point x="319" y="338" type="curve"/>
      <point x="404" y="359"/>
      <point x="437" y="423"/>
      <point x="437" y="495" type="curve" smooth="yes"/>
      <point x="437" y="598"/>
      <point x="371" y="658"/>
      <point x="234" y="658" type="curve" smooth="yes"/>
      <point x="76" y="658" type="line"/>
    </contour>
    <contour>
      <point x="132" y="358" type="line"/>
      <point x="132" y="609" type="line"/>
      <point x="234" y="609" type="line" smooth="yes"/>
      <point x="323" y="609"/>
      <point x="381" y="572"/>
      <point x="381" y="488" type="curve" smooth="yes"/>
      <point x="381" y="401"/>
      <point x="322" y="358"/>
      <point x="231" y="358" type="curve" smooth="yes"/>
    </contour>
    <contour>
      <point x="132" y="49" type="line"/>
      <point x="132" y="311" type="line"/>
      <point x="240" y="311" type="line" smooth="yes"/>
      <point x="346" y="311"/>
      <point x="404" y="267"/>
      <point x="404" y="179" type="curve" smooth="yes"/>
      <point x="404" y="91"/>
      <point x="348" y="49"/>
      <point x="252" y="49" type="curve" smooth="yes"/>
    </contour>
  </outline>
</glyph>
<glyph name="C" format="2">
  <advance width="661"/>
  <unicode hex="0043"/>
  <outline>
    <contour>
      <point x="400" y="-13" type="curve" smooth="yes"/>
      <point x="478" y="-13"/>
      <point x="546" y="4"/>
      <point x="611" y="45" type="curve"/>
      <point x="611" y="104" type="line"/>
      <point x="546" y="60"/>
      <point x="480" y="39"/>
      <point x="400" y="39" type="curve" smooth="yes"/>
      <point x="227" y="39"/>
      <point x="110" y="150"/>
      <point x="110" y="328" type="curve" smooth="yes"/>
      <point x="110" y="505"/>
      <point x="223" y="619"/>
      <point x="400" y="619" type="curve" smooth="yes"/>
      <point x="479" y="619"/>
      <point x="542" y="603"/>
      <point x="604" y="564" type="curve"/>
      <point x="604" y="622" type="line"/>
      <point x="541" y="656"/>
      <point x="478" y="671"/>
      <point x="400" y="671" type="curve" smooth="yes"/>
      <point x="187" y="671"/>
      <point x="52" y="536"/>
      <point x="52" y="328" type="curve" smooth="yes"/>
      <point x="52" y="119"/>
      <point x="191" y="-13"/>
    </contour>
  </outline>
</glyph>
<glyph name="D" format="2">
  <advance width="682"/>
  <unicode hex="0044"/>
  <outline>
    <contour>
      <point x="76" y="0" type="line"/>
      <point x="259" y="0" type="line" smooth="yes"/>
      <point x="486" y="0"/>
      <point x="630" y="133"/>
      <point x="630" y="337" type="curve" smooth="yes"/>
      <point x="630" y="531"/>
      <point x="488" y="658"/>
      <point x="267" y="658" type="curve" smooth="yes"/>
      <point x="76" y="658" type="line"/>
    </contour>
    <contour>
      <point x="132" y="52" type="line"/>
      <point x="132" y="606" type="line"/>
      <point x="269" y="606" type="line" smooth="yes"/>
      <point x="456" y="606"/>
      <point x="573" y="500"/>
      <point x="573" y="337" type="curve" smooth="yes"/>
      <point x="573" y="163"/>
      <point x="453" y="52"/>
      <point x="261" y="52" type="curve" smooth="yes"/>
    </contour>
  </outline>
</glyph>
<glyph name="E" format="2">
  <advance width="485"/>
  <unicode hex="0045"/>
  <outline>
    <contour>
      <point x="76" y="0" type="line"/>
      <point x="429" y="0" type="line"/>
      <point x="429" y="52" type="line"/>
      <point x="132" y="52" type="line"/>
      <point x="132" y="307" type="line"/>
      <point x="403" y="307" type="line"/>
      <point x="403" y="359" type="line"/>
      <point x="132" y="359" type="line"/>
      <point x="132" y="606" type="line"/>
      <point x="417" y="606" type="line"/>
      <point x="417" y="658" type="line"/>
      <point x="76" y="658" type="line"/>
    </contour>
  </outline>
</glyph>
<glyph name="G" format="2">
  <advance width="688"/>
  <unicode hex="0047"/>
  <outline>
    <contour>
      <point x="388" y="-13" type="curve" smooth="yes"/>
      <point x="470" y="-13"/>
      <point x="556" y="7"/>
      <point x="627" y="40" type="curve"/>
      <point x="627" y="320" type="line"/>
      <point x="428" y="320" type="line"/>
      <point x="428" y="268" type="line"/>
      <point x="571" y="268" type="line"/>
      <point x="571" y="75" type="line"/>
      <point x="515" y="52"/>
      <point x="451" y="39"/>
      <point x="386" y="39" type="curve" smooth="yes"/>
      <point x="218" y="39"/>
      <point x="110" y="153"/>
      <point x="110" y="331" type="curve" smooth="yes"/>
      <point x="110" y="508"/>
      <point x="220" y="619"/>
      <point x="392" y="619" type="curve" smooth="yes"/>
      <point x="470" y="619"/>
      <point x="536" y="603"/>
      <point x="599" y="570" type="curve"/>
      <point x="599" y="627" type="line"/>
      <point x="535" y="656"/>
      <point x="464" y="671"/>
      <point x="391" y="671" type="curve" smooth="yes"/>
      <point x="185" y="671"/>
      <point x="52" y="537"/>
      <point x="52" y="331" type="curve" smooth="yes"/>
      <point x="52" y="123"/>
      <point x="185" y="-13"/>
    </contour>
  </outline>
</glyph>
<glyph name="J" format="2">
  <advance width="210"/>
  <unicode hex="004A"/>
  <outline>
    <contour>
      <point x="-17" y="-220" type="line" smooth="yes"/>
      <point x="76" y="-220"/>
      <point x="133" y="-160"/>
      <point x="133" y="-66" type="curve" smooth="yes"/>
      <point x="133" y="658" type="line"/>
      <point x="77" y="658" type="line"/>
      <point x="77" y="-66" type="line" smooth="yes"/>
      <point x="77" y="-130"/>
      <point x="41" y="-169"/>
      <point x="-17" y="-169" type="curve" smooth="yes"/>
      <point x="-25" y="-169" type="line"/>
      <point x="-25" y="-220" type="line"/>
    </contour>
  </outline>
</glyph>
<glyph name="K" format="2">
  <advance width="553"/>
  <unicode hex="004B"/>
  <outline>
    <contour>
      <point x="76" y="0" type="line"/>
      <point x="132" y="0" type="line"/>
      <point x="132" y="320" type="line"/>
      <point x="446" y="0" type="line"/>
      <point x="522" y="1" type="line"/>
      <point x="188" y="339" type="line"/>
      <point x="507" y="658" type="line"/>
      <point x="437" y="658" type="line"/>
      <point x="132" y="350" type="line"/>
      <point x="132" y="658" type="line"/>
      <point x="76" y="658" type="line"/>
    </contour>
  </outline>
</glyph>
<glyph name="M" format="2">
  <advance width="758"/>
  <unicode hex="004D"/>
  <outline>
    <contour>
      <point x="76" y="0" type="line"/>
      <point x="128" y="0" type="line"/>
      <point x="128" y="539" type="line"/>
      <point x="127" y="596" type="line"/>
      <point x="152" y="539" type="line"/>
      <point x="352" y="125" type="line"/>
      <point x="403" y="125" type="line"/>
      <point x="603" y="539" type="line"/>
      <point x="627" y="595" type="line"/>
      <point x="626" y="539" type="line"/>
      <point x="626" y="0" type="line"/>
      <point x="682" y="0" type="line"/>
      <point x="682" y="658" type="line"/>
      <point x="600" y="658" type="line"/>
      <point x="400" y="244" type="line"/>
      <point x="379" y="188" type="line"/>
      <point x="357" y="244" type="line"/>
      <point x="157" y="658" type="line"/>
      <point x="76" y="658" type="line"/>
    </contour>
  </outline>
</glyph>
<glyph name="O" format="2">
  <advance width="777"/>
  <unicode hex="004F"/>
  <outline>
    <contour>
      <point x="388" y="-14" type="curve" smooth="yes"/>
      <point x="587" y="-14"/>
      <point x="724" y="123"/>
      <point x="724" y="329" type="curve" smooth="yes"/>
      <point x="724" y="535"/>
      <point x="585" y="672"/>
      <point x="388" y="672" type="curve" smooth="yes"/>
      <point x="192" y="672"/>
      <point x="52" y="534"/>
      <point x="52" y="329" type="curve" smooth="yes"/>
      <point x="52" y="125"/>
      <point x="191" y="-14"/>
    </contour>
    <contour>
      <point x="388" y="37" type="curve" smooth="yes"/>
      <point x="225" y="37"/>
      <point x="110" y="154"/>
      <point x="110" y="329" type="curve" smooth="yes"/>
      <point x="110" y="504"/>
      <point x="225" y="621"/>
      <point x="388" y="621" type="curve" smooth="yes"/>
      <point x="552" y="621"/>
      <point x="667" y="504"/>
      <point x="667" y="329" type="curve" smooth="yes"/>
      <point x="667" y="154"/>
      <point x="552" y="37"/>
    </contour>
  </outline>
</glyph>
<glyph name="P" format="2">
  <advance width="469"/>
  <unicode hex="0050"/>
  <outline>
    <contour>
      <point x="76" y="0" type="line"/>
      <point x="132" y="0" type="line"/>
      <point x="132" y="249" type="line"/>
      <point x="192" y="249" type="line" smooth="yes"/>
      <point x="346" y="249"/>
      <point x="430" y="329"/>
      <point x="430" y="453" type="curve" smooth="yes"/>
      <point x="430" y="577"/>
      <point x="346" y="658"/>
      <point x="191" y="658" type="curve" smooth="yes"/>
      <point x="76" y="658" type="line"/>
    </contour>
    <contour>
      <point x="132" y="299" type="line"/>
      <point x="132" y="607" type="line"/>
      <point x="192" y="607" type="line" smooth="yes"/>
      <point x="301" y="607"/>
      <point x="373" y="553"/>
      <point x="373" y="453" type="curve" smooth="yes"/>
      <point x="373" y="353"/>
      <point x="301" y="299"/>
      <point x="193" y="299" type="curve" smooth="yes"/>
    </contour>
  </outline>
</glyph>
<glyph name="Q" format="2">
  <advance width="777"/>
  <unicode hex="0051"/>
  <outline>
    <contour>
      <point x="388" y="-14" type="curve" smooth="yes"/>
      <point x="403" y="-14"/>
      <point x="418" y="-13"/>
      <point x="432" y="-12" type="curve"/>
      <point x="492" y="-73"/>
      <point x="581" y="-120"/>
      <point x="680" y="-135" type="curve"/>
      <point x="691" y="-80" type="line"/>
      <point x="611" y="-70"/>
      <point x="550" y="-43"/>
      <point x="502" y="3" type="curve"/>
      <point x="637" y="45"/>
      <point x="724" y="165"/>
      <point x="724" y="329" type="curve" smooth="yes"/>
      <point x="724" y="535"/>
      <point x="585" y="672"/>
      <point x="388" y="672" type="curve" smooth="yes"/>
      <point x="192" y="672"/>
      <point x="52" y="534"/>
      <point x="52" y="329" type="curve" smooth="yes"/>
      <point x="52" y="125"/>
      <point x="191" y="-14"/>
    </contour>
    <contour>
      <point x="388" y="37" type="curve" smooth="yes"/>
      <point x="225" y="37"/>
      <point x="110" y="154"/>
      <point x="110" y="329" type="curve" smooth="yes"/>
      <point x="110" y="504"/>
      <point x="225" y="621"/>
      <point x="388" y="621" type="curve" smooth="yes"/>
      <point x="552" y="621"/>
      <point x="667" y="504"/>
      <point x="667" y="329" type="curve" smooth="yes"/>
      <point x="667" y="154"/>
      <point x="552" y="37"/>
    </contour>
  </outline>
</glyph>
<glyph name="R" format="2">
  <advance width="517"/>
  <unicode hex="0052"/>
  <outline>
    <contour>
      <point x="425" y="0" type="line"/>
      <point x="485" y="0" type="line"/>
      <point x="397" y="232" type="line" smooth="yes"/>
      <point x="378" y="280"/>
      <point x="350" y="311"/>
      <point x="310" y="324" type="curve"/>
      <point x="388" y="346"/>
      <point x="431" y="409"/>
      <point x="431" y="488" type="curve" smooth="yes"/>
      <point x="431" y="592"/>
      <point x="356" y="658"/>
      <point x="236" y="658" type="curve" smooth="yes"/>
      <point x="76" y="658" type="line"/>
      <point x="76" y="0" type="line"/>
      <point x="132" y="0" type="line"/>
      <point x="132" y="304" type="line"/>
      <point x="223" y="304" type="line" smooth="yes"/>
      <point x="281" y="304"/>
      <point x="320" y="279"/>
      <point x="343" y="218" type="curve" smooth="yes"/>
    </contour>
    <contour>
      <point x="132" y="353" type="line"/>
      <point x="132" y="607" type="line"/>
      <point x="235" y="607" type="line" smooth="yes"/>
      <point x="319" y="607"/>
      <point x="373" y="559"/>
      <point x="373" y="482" type="curve" smooth="yes"/>
      <point x="373" y="402"/>
      <point x="323" y="353"/>
      <point x="239" y="353" type="curve" smooth="yes"/>
    </contour>
  </outline>
</glyph>
<glyph name="S" format="2">
  <advance width="497"/>
  <unicode hex="0053"/>
  <outline>
    <contour>
      <point x="243" y="-16" type="curve" smooth="yes"/>
      <point x="362" y="-16"/>
      <point x="440" y="58"/>
      <point x="440" y="166" type="curve" smooth="yes"/>
      <point x="440" y="262"/>
      <point x="389" y="315"/>
      <point x="270" y="361" type="curve" smooth="yes"/>
      <point x="252" y="368" type="line" smooth="yes"/>
      <point x="163" y="404"/>
      <point x="123" y="437"/>
      <point x="123" y="503" type="curve" smooth="yes"/>
      <point x="123" y="576"/>
      <point x="175" y="622"/>
      <point x="260" y="622" type="curve" smooth="yes"/>
      <point x="323" y="622"/>
      <point x="377" y="600"/>
      <point x="423" y="559" type="curve"/>
      <point x="423" y="625" type="line"/>
      <point x="373" y="657"/>
      <point x="318" y="674"/>
      <point x="258" y="674" type="curve" smooth="yes"/>
      <point x="141" y="674"/>
      <point x="68" y="604"/>
      <point x="68" y="502" type="curve" smooth="yes"/>
      <point x="68" y="409"/>
      <point x="118" y="360"/>
      <point x="230" y="316" type="curve" smooth="yes"/>
      <point x="248" y="309" type="line" smooth="yes"/>
      <point x="344" y="271"/>
      <point x="384" y="233"/>
      <point x="384" y="162" type="curve" smooth="yes"/>
      <point x="384" y="86"/>
      <point x="327" y="36"/>
      <point x="241" y="36" type="curve" smooth="yes"/>
      <point x="174" y="36"/>
      <point x="113" y="59"/>
      <point x="58" y="103" type="curve"/>
      <point x="58" y="39" type="line"/>
      <point x="112" y="3"/>
      <point x="174" y="-16"/>
    </contour>
  </outline>
</glyph>
<glyph name="U" format="2">
  <advance width="663"/>
  <unicode hex="0055"/>
  <outline>
    <contour>
      <point x="332" y="-12" type="curve" smooth="yes"/>
      <point x="489" y="-12"/>
      <point x="591" y="96"/>
      <point x="591" y="260" type="curve" smooth="yes"/>
      <point x="591" y="658" type="line"/>
      <point x="537" y="658" type="line"/>
      <point x="537" y="260" type="line" smooth="yes"/>
      <point x="537" y="128"/>
      <point x="457" y="41"/>
      <point x="332" y="41" type="curve" smooth="yes"/>
      <point x="209" y="41"/>
      <point x="128" y="128"/>
      <point x="128" y="260" type="curve" smooth="yes"/>
      <point x="128" y="658" type="line"/>
      <point x="72" y="658" type="line"/>
      <point x="72" y="260" type="line" smooth="yes"/>
      <point x="72" y="96"/>
      <point x="174" y="-12"/>
    </contour>
  </outline>
</glyph>
<glyph name="W" format="2">
  <advance width="928"/>
  <unicode hex="0057"/>
  <outline>
    <contour>
      <point x="226" y="0" type="line"/>
      <point x="285" y="0" type="line"/>
      <point x="452" y="540" type="line"/>
      <point x="465" y="586" type="line"/>
      <point x="477" y="540" type="line"/>
      <point x="643" y="0" type="line"/>
      <point x="702" y="0" type="line"/>
      <point x="909" y="658" type="line"/>
      <point x="855" y="658" type="line"/>
      <point x="687" y="119" type="line"/>
      <point x="675" y="75" type="line"/>
      <point x="663" y="119" type="line"/>
      <point x="495" y="658" type="line"/>
      <point x="438" y="658" type="line"/>
      <point x="270" y="119" type="line"/>
      <point x="258" y="74" type="line"/>
      <point x="246" y="119" type="line"/>
      <point x="77" y="658" type="line"/>
      <point x="19" y="658" type="line"/>
    </contour>
  </outline>
</glyph>
<glyph name="X" format="2">
  <advance width="592"/>
  <unicode hex="0058"/>
  <outline>
    <contour>
      <point x="31" y="0" type="line"/>
      <point x="94" y="0" type="line"/>
      <point x="267" y="257" type="line"/>
      <point x="292" y="294" type="line"/>
      <point x="318" y="257" type="line"/>
      <point x="494" y="0" type="line"/>
      <point x="561" y="0" type="line"/>
      <point x="325" y="340" type="line"/>
      <point x="543" y="658" type="line"/>
      <point x="481" y="658" type="line"/>
      <point x="321" y="422" type="line"/>
      <point x="296" y="383" type="line"/>
      <point x="270" y="422" type="line"/>
      <point x="111" y="658" type="line"/>
      <point x="45" y="658" type="line"/>
      <point x="262" y="336" type="line"/>
    </contour>
  </outline>
</glyph>
<glyph name="Y" format="2">
  <advance width="564"/>
  <unicode hex="0059"/>
  <outline>
    <contour>
      <point x="254" y="0" type="line"/>
      <point x="310" y="0" type="line"/>
      <point x="310" y="294" type="line"/>
      <point x="550" y="658" type="line"/>
      <point x="488" y="658" type="line"/>
      <point x="311" y="389" type="line"/>
      <point x="284" y="345" type="line"/>
      <point x="257" y="389" type="line"/>
      <point x="80" y="658" type="line"/>
      <point x="15" y="658" type="line"/>
      <point x="254" y="294" type="line"/>
    </contour>
  </outline>
</glyph>
<glyph name="Z" format="2">
  <advance width="587"/>
  <unicode hex="005A"/>
  <outline>
    <contour>
      <point x="56" y="0" type="line"/>
      <point x="531" y="0" type="line"/>
      <point x="531" y="52" type="line"/>
      <point x="137" y="52" type="line"/>
      <point x="163" y="90" type="line"/>
      <point x="531" y="629" type="line"/>
      <point x="531" y="658" type="line"/>
      <point x="60" y="658" type="line"/>
      <point x="60" y="606" type="line"/>
      <point x="448" y="606" type="line"/>
      <point x="423" y="568" type="line"/>
      <point x="56" y="31" type="line"/>
    </contour>
  </outline>
</glyph>
<glyph name="a" format="2">
  <advance width="443"/>
  <unicode hex="0061"/>
  <outline>
    <contour>
      <point x="185" y="-10" type="curve" smooth="yes"/>
      <point x="244" y="-10"/>
      <point x="293" y="16"/>
      <point x="322" y="64" type="curve"/>
      <point x="328" y="0" type="line"/>
      <point x="377" y="0" type="line"/>
      <point x="377" y="325" type="line" smooth="yes"/>
      <point x="377" y="424"/>
      <point x="317" y="475"/>
      <point x="214" y="475" type="curve" smooth="yes"/>
      <point x="161" y="475"/>
      <point x="112" y="460"/>
      <point x="62" y="435" type="curve"/>
      <point x="62" y="378" type="line"/>
      <point x="109" y="410"/>
      <point x="154" y="425"/>
      <point x="209" y="425" type="curve" smooth="yes"/>
      <point x="280" y="425"/>
      <point x="322" y="394"/>
      <point x="322" y="324" type="curve" smooth="yes"/>
      <point x="322" y="289" type="line"/>
      <point x="216" y="276" type="line" smooth="yes"/>
      <point x="104" y="262"/>
      <point x="41" y="204"/>
      <point x="41" y="122" type="curve" smooth="yes"/>
      <point x="41" y="42"/>
      <point x="96" y="-10"/>
    </contour>
    <contour>
      <point x="195" y="36" type="curve" smooth="yes"/>
      <point x="133" y="36"/>
      <point x="96" y="71"/>
      <point x="96" y="126" type="curve" smooth="yes"/>
      <point x="96" y="184"/>
      <point x="141" y="224"/>
      <point x="223" y="234" type="curve" smooth="yes"/>
      <point x="322" y="246" type="line"/>
      <point x="322" y="118" type="line"/>
      <point x="301" y="70"/>
      <point x="254" y="36"/>
    </contour>
  </outline>
</glyph>
<glyph name="b" format="2">
  <advance width="508"/>
  <unicode hex="0062"/>
  <outline>
    <contour>
      <point x="233" y="-10" type="curve" smooth="yes"/>
      <point x="371" y="-10"/>
      <point x="460" y="85"/>
      <point x="460" y="239" type="curve" smooth="yes"/>
      <point x="460" y="384"/>
      <point x="381" y="474"/>
      <point x="258" y="474" type="curve" smooth="yes"/>
      <point x="209" y="474"/>
      <point x="158" y="454"/>
      <point x="124" y="419" type="curve"/>
      <point x="124" y="722" type="line"/>
      <point x="70" y="722" type="line"/>
      <point x="70" y="19" type="line"/>
      <point x="122" y="-1"/>
      <point x="175" y="-10"/>
    </contour>
    <contour>
      <point x="235" y="38" type="curve" smooth="yes"/>
      <point x="196" y="38"/>
      <point x="160" y="44"/>
      <point x="124" y="56" type="curve"/>
      <point x="124" y="371" type="line"/>
      <point x="160" y="409"/>
      <point x="200" y="425"/>
      <point x="250" y="425" type="curve" smooth="yes"/>
      <point x="345" y="425"/>
      <point x="405" y="353"/>
      <point x="405" y="235" type="curve" smooth="yes"/>
      <point x="405" y="114"/>
      <point x="338" y="38"/>
    </contour>
  </outline>
</glyph>
<glyph name="c" format="2">
  <advance width="468"/>
  <unicode hex="0063"/>
  <outline>
    <contour>
      <point x="281" y="-10" type="curve" smooth="yes"/>
      <point x="332" y="-10"/>
      <point x="380" y="4"/>
      <point x="422" y="32" type="curve"/>
      <point x="422" y="91" type="line"/>
      <point x="382" y="58"/>
      <point x="336" y="41"/>
      <point x="283" y="41" type="curve" smooth="yes"/>
      <point x="173" y="41"/>
      <point x="102" y="113"/>
      <point x="102" y="231" type="curve" smooth="yes"/>
      <point x="102" y="354"/>
      <point x="169" y="423"/>
      <point x="279" y="423" type="curve" smooth="yes"/>
      <point x="332" y="423"/>
      <point x="376" y="409"/>
      <point x="424" y="377" type="curve"/>
      <point x="424" y="435" type="line"/>
      <point x="377" y="461"/>
      <point x="328" y="474"/>
      <point x="277" y="474" type="curve" smooth="yes"/>
      <point x="136" y="474"/>
      <point x="47" y="383"/>
      <point x="47" y="230" type="curve" smooth="yes"/>
      <point x="47" y="83"/>
      <point x="140" y="-10"/>
    </contour>
  </outline>
</glyph>
<glyph name="d" format="2">
  <advance width="516"/>
  <unicode hex="0064"/>
  <outline>
    <contour>
      <point x="252" y="-10" type="curve" smooth="yes"/>
      <point x="308" y="-10"/>
      <point x="360" y="16"/>
      <point x="392" y="64" type="curve"/>
      <point x="397" y="0" type="line"/>
      <point x="446" y="0" type="line"/>
      <point x="446" y="722" type="line"/>
      <point x="392" y="722" type="line"/>
      <point x="392" y="431" type="line"/>
      <point x="353" y="459"/>
      <point x="308" y="474"/>
      <point x="260" y="474" type="curve" smooth="yes"/>
      <point x="137" y="474"/>
      <point x="47" y="389"/>
      <point x="47" y="230" type="curve" smooth="yes"/>
      <point x="47" y="72"/>
      <point x="132" y="-10"/>
    </contour>
    <contour>
      <point x="260" y="38" type="curve" smooth="yes"/>
      <point x="161" y="38"/>
      <point x="102" y="114"/>
      <point x="102" y="232" type="curve" smooth="yes"/>
      <point x="102" y="349"/>
      <point x="164" y="426"/>
      <point x="265" y="426" type="curve" smooth="yes"/>
      <point x="312" y="426"/>
      <point x="355" y="409"/>
      <point x="392" y="379" type="curve"/>
      <point x="392" y="119" type="line"/>
      <point x="366" y="70"/>
      <point x="319" y="38"/>
    </contour>
  </outline>
</glyph>
<glyph name="e" format="2">
  <advance width="504"/>
  <unicode hex="0065"/>
  <outline>
    <contour>
      <point x="275" y="-10" type="curve" smooth="yes"/>
      <point x="333" y="-10"/>
      <point x="390" y="8"/>
      <point x="446" y="45" type="curve"/>
      <point x="446" y="99" type="line"/>
      <point x="392" y="58"/>
      <point x="337" y="39"/>
      <point x="279" y="39" type="curve" smooth="yes"/>
      <point x="165" y="39"/>
      <point x="103" y="109"/>
      <point x="103" y="223" type="curve" smooth="yes"/>
      <point x="457" y="223" type="line"/>
      <point x="457" y="252" type="line" smooth="yes"/>
      <point x="457" y="393"/>
      <point x="381" y="474"/>
      <point x="257" y="474" type="curve" smooth="yes"/>
      <point x="130" y="474"/>
      <point x="47" y="377"/>
      <point x="47" y="233" type="curve" smooth="yes"/>
      <point x="47" y="82"/>
      <point x="128" y="-10"/>
    </contour>
    <contour>
      <point x="257" y="428" type="curve" smooth="yes"/>
      <point x="348" y="428"/>
      <point x="402" y="367"/>
      <point x="402" y="267" type="curve"/>
      <point x="104" y="267" type="line"/>
      <point x="110" y="363"/>
      <point x="171" y="428"/>
    </contour>
  </outline>
</glyph>
<glyph name="f" format="2">
  <advance width="260"/>
  <unicode hex="0066"/>
  <outline>
    <contour>
      <point x="96" y="0" type="line"/>
      <point x="150" y="0" type="line"/>
      <point x="150" y="414" type="line"/>
      <point x="241" y="414" type="line"/>
      <point x="241" y="464" type="line"/>
      <point x="150" y="464" type="line"/>
      <point x="150" y="564" type="line" smooth="yes"/>
      <point x="150" y="641"/>
      <point x="187" y="681"/>
      <point x="248" y="681" type="curve" smooth="yes"/>
      <point x="281" y="681"/>
      <point x="314" y="672"/>
      <point x="341" y="655" type="curve"/>
      <point x="341" y="711" type="line"/>
      <point x="311" y="725"/>
      <point x="278" y="732"/>
      <point x="244" y="732" type="curve" smooth="yes"/>
      <point x="149" y="732"/>
      <point x="96" y="666"/>
      <point x="96" y="563" type="curve" smooth="yes"/>
      <point x="96" y="464" type="line"/>
      <point x="20" y="464" type="line"/>
      <point x="20" y="414" type="line"/>
      <point x="96" y="414" type="line"/>
    </contour>
  </outline>
</glyph>
<glyph name="g" format="2">
  <advance width="517"/>
  <unicode hex="0067"/>
  <outline>
    <contour>
      <point x="247" y="-226" type="curve" smooth="yes"/>
      <point x="370" y="-226"/>
      <point x="450" y="-141"/>
      <point x="450" y="-11" type="curve" smooth="yes"/>
      <point x="450" y="464" type="line"/>
      <point x="420" y="464" type="line"/>
      <point x="406" y="419" type="line"/>
      <point x="373" y="452"/>
      <point x="315" y="474"/>
      <point x="264" y="474" type="curve" smooth="yes"/>
      <point x="140" y="474"/>
      <point x="47" y="387"/>
      <point x="47" y="231" type="curve" smooth="yes"/>
      <point x="47" y="73"/>
      <point x="133" y="-10"/>
      <point x="257" y="-10" type="curve" smooth="yes"/>
      <point x="312" y="-10"/>
      <point x="363" y="13"/>
      <point x="396" y="58" type="curve"/>
      <point x="396" y="-15" type="line" smooth="yes"/>
      <point x="396" y="-114"/>
      <point x="335" y="-175"/>
      <point x="242" y="-175" type="curve" smooth="yes"/>
      <point x="180" y="-175"/>
      <point x="118" y="-153"/>
      <point x="67" y="-122" type="curve"/>
      <point x="67" y="-181" type="line"/>
      <point x="121" y="-211"/>
      <point x="187" y="-226"/>
    </contour>
    <contour>
      <point x="265" y="38" type="curve" smooth="yes"/>
      <point x="161" y="38"/>
      <point x="102" y="114"/>
      <point x="102" y="232" type="curve" smooth="yes"/>
      <point x="102" y="347"/>
      <point x="166" y="426"/>
      <point x="267" y="426" type="curve" smooth="yes"/>
      <point x="315" y="426"/>
      <point x="368" y="405"/>
      <point x="396" y="372" type="curve"/>
      <point x="396" y="118" type="line"/>
      <point x="371" y="71"/>
      <point x="324" y="38"/>
    </contour>
  </outline>
</glyph>
<glyph name="h" format="2">
  <advance width="493"/>
  <unicode hex="0068"/>
  <outline>
    <contour>
      <point x="70" y="0" type="line"/>
      <point x="124" y="0" type="line"/>
      <point x="124" y="348" type="line"/>
      <point x="153" y="394"/>
      <point x="201" y="424"/>
      <point x="256" y="424" type="curve" smooth="yes"/>
      <point x="328" y="424"/>
      <point x="372" y="382"/>
      <point x="372" y="297" type="curve" smooth="yes"/>
      <point x="372" y="0" type="line"/>
      <point x="427" y="0" type="line"/>
      <point x="427" y="306" type="line" smooth="yes"/>
      <point x="427" y="408"/>
      <point x="371" y="474"/>
      <point x="266" y="474" type="curve" smooth="yes"/>
      <point x="210" y="474"/>
      <point x="157" y="446"/>
      <point x="124" y="400" type="curve"/>
      <point x="124" y="722" type="line"/>
      <point x="70" y="722" type="line"/>
    </contour>
  </outline>
</glyph>
<glyph name="j" format="2">
  <advance width="194"/>
  <unicode hex="006A"/>
  <outline>
    <contour>
      <point x="68" y="624" type="line"/>
      <point x="128" y="624" type="line"/>
      <point x="128" y="683" type="line"/>
      <point x="68" y="683" type="line"/>
    </contour>
    <contour>
      <point x="-24" y="-220" type="line" smooth="yes"/>
      <point x="67" y="-220"/>
      <point x="125" y="-158"/>
      <point x="125" y="-58" type="curve" smooth="yes"/>
      <point x="125" y="464" type="line"/>
      <point x="71" y="464" type="line"/>
      <point x="71" y="-58" type="line" smooth="yes"/>
      <point x="71" y="-126"/>
      <point x="34" y="-170"/>
      <point x="-24" y="-170" type="curve" smooth="yes"/>
      <point x="-32" y="-170" type="line"/>
      <point x="-32" y="-220" type="line"/>
    </contour>
  </outline>
</glyph>
<glyph name="k" format="2">
  <advance width="450"/>
  <unicode hex="006B"/>
  <outline>
    <contour>
      <point x="70" y="0" type="line"/>
      <point x="124" y="0" type="line"/>
      <point x="124" y="226" type="line"/>
      <point x="356" y="0" type="line"/>
      <point x="428" y="0" type="line"/>
      <point x="179" y="244" type="line"/>
      <point x="403" y="464" type="line"/>
      <point x="336" y="464" type="line"/>
      <point x="124" y="254" type="line"/>
      <point x="124" y="722" type="line"/>
      <point x="70" y="722" type="line"/>
    </contour>
  </outline>
</glyph>
<glyph name="m" format="2">
  <advance width="789"/>
  <unicode hex="006D"/>
  <outline>
    <contour>
      <point x="70" y="0" type="line"/>
      <point x="124" y="0" type="line"/>
      <point x="124" y="348" type="line"/>
      <point x="153" y="395"/>
      <point x="201" y="424"/>
      <point x="253" y="424" type="curve" smooth="yes"/>
      <point x="327" y="424"/>
      <point x="369" y="376"/>
      <point x="369" y="302" type="curve"/>
      <point x="369" y="0" type="line"/>
      <point x="423" y="0" type="line"/>
      <point x="423" y="333" type="line"/>
      <point x="452" y="400"/>
      <point x="500" y="424"/>
      <point x="552" y="424" type="curve" smooth="yes"/>
      <point x="624" y="424"/>
      <point x="668" y="376"/>
      <point x="668" y="299" type="curve" smooth="yes"/>
      <point x="668" y="0" type="line"/>
      <point x="722" y="0" type="line"/>
      <point x="722" y="308" type="line" smooth="yes"/>
      <point x="722" y="411"/>
      <point x="660" y="474"/>
      <point x="562" y="474" type="curve" smooth="yes"/>
      <point x="503" y="474"/>
      <point x="449" y="449"/>
      <point x="412" y="379" type="curve"/>
      <point x="393" y="432"/>
      <point x="346" y="474"/>
      <point x="264" y="474" type="curve" smooth="yes"/>
      <point x="207" y="474"/>
      <point x="158" y="446"/>
      <point x="124" y="400" type="curve"/>
      <point x="124" y="464" type="line"/>
      <point x="70" y="464" type="line"/>
    </contour>
  </outline>
</glyph>
<glyph name="n" format="2">
  <advance width="493"/>
  <unicode hex="006E"/>
  <outline>
    <contour>
      <point x="70" y="0" type="line"/>
      <point x="124" y="0" type="line"/>
      <point x="124" y="348" type="line"/>
      <point x="153" y="394"/>
      <point x="201" y="424"/>
      <point x="256" y="424" type="curve" smooth="yes"/>
      <point x="328" y="424"/>
      <point x="372" y="382"/>
      <point x="372" y="297" type="curve" smooth="yes"/>
      <point x="372" y="0" type="line"/>
      <point x="427" y="0" type="line"/>
      <point x="427" y="306" type="line" smooth="yes"/>
      <point x="427" y="408"/>
      <point x="371" y="474"/>
      <point x="266" y="474" type="curve" smooth="yes"/>
      <point x="210" y="474"/>
      <point x="157" y="446"/>
      <point x="124" y="400" type="curve"/>
      <point x="124" y="464" type="line"/>
      <point x="70" y="464" type="line"/>
    </contour>
  </outline>
</glyph>
<glyph name="o" format="2">
  <advance width="560"/>
  <unicode hex="006F"/>
  <outline>
    <contour>
      <point x="280" y="-10" type="curve" smooth="yes"/>
      <point x="419" y="-10"/>
      <point x="513" y="86"/>
      <point x="513" y="232" type="curve" smooth="yes"/>
      <point x="513" y="378"/>
      <point x="419" y="474"/>
      <point x="280" y="474" type="curve" smooth="yes"/>
      <point x="140" y="474"/>
      <point x="47" y="377"/>
      <point x="47" y="231" type="curve" smooth="yes"/>
      <point x="47" y="86"/>
      <point x="140" y="-10"/>
    </contour>
    <contour>
      <point x="280" y="39" type="curve" smooth="yes"/>
      <point x="173" y="39"/>
      <point x="103" y="116"/>
      <point x="103" y="232" type="curve" smooth="yes"/>
      <point x="103" y="348"/>
      <point x="173" y="425"/>
      <point x="280" y="425" type="curve" smooth="yes"/>
      <point x="386" y="425"/>
      <point x="457" y="347"/>
      <point x="457" y="231" type="curve" smooth="yes"/>
      <point x="457" y="116"/>
      <point x="386" y="39"/>
    </contour>
  </outline>
</glyph>
<glyph name="p" format="2">
  <advance width="508"/>
  <unicode hex="0070"/>
  <outline>
    <contour>
      <point x="70" y="-216" type="line"/>
      <point x="124" y="-216" type="line"/>
      <point x="124" y="25" type="line"/>
      <point x="159" y="3"/>
      <point x="200" y="-10"/>
      <point x="245" y="-10" type="curve" smooth="yes"/>
      <point x="371" y="-10"/>
      <point x="461" y="85"/>
      <point x="461" y="239" type="curve" smooth="yes"/>
      <point x="461" y="382"/>
      <point x="381" y="474"/>
      <point x="261" y="474" type="curve" smooth="yes"/>
      <point x="206" y="474"/>
      <point x="152" y="449"/>
      <point x="124" y="407" type="curve"/>
      <point x="124" y="464" type="line"/>
      <point x="70" y="464" type="line"/>
    </contour>
    <contour>
      <point x="242" y="38" type="curve" smooth="yes"/>
      <point x="196" y="38"/>
      <point x="159" y="50"/>
      <point x="124" y="75" type="curve"/>
      <point x="124" y="358" type="line"/>
      <point x="150" y="400"/>
      <point x="202" y="425"/>
      <point x="250" y="425" type="curve" smooth="yes"/>
      <point x="345" y="425"/>
      <point x="406" y="353"/>
      <point x="406" y="235" type="curve" smooth="yes"/>
      <point x="406" y="113"/>
      <point x="337" y="38"/>
    </contour>
  </outline>
</glyph>
<glyph name="q" format="2">
  <advance width="512"/>
  <unicode hex="0071"/>
  <outline>
    <contour>
      <point x="391" y="-216" type="line"/>
      <point x="445" y="-216" type="line"/>
      <point x="445" y="464" type="line"/>
      <point x="411" y="464" type="line"/>
      <point x="401" y="419" type="line"/>
      <point x="368" y="452"/>
      <point x="310" y="474"/>
      <point x="258" y="474" type="curve" smooth="yes"/>
      <point x="136" y="474"/>
      <point x="47" y="389"/>
      <point x="47" y="230" type="curve" smooth="yes"/>
      <point x="47" y="74"/>
      <point x="129" y="-10"/>
      <point x="251" y="-10" type="curve" smooth="yes"/>
      <point x="306" y="-10"/>
      <point x="358" y="13"/>
      <point x="391" y="58" type="curve"/>
    </contour>
    <contour>
      <point x="258" y="39" type="curve" smooth="yes"/>
      <point x="158" y="39"/>
      <point x="102" y="115"/>
      <point x="102" y="232" type="curve" smooth="yes"/>
      <point x="102" y="350"/>
      <point x="164" y="426"/>
      <point x="263" y="426" type="curve" smooth="yes"/>
      <point x="310" y="426"/>
      <point x="363" y="405"/>
      <point x="391" y="372" type="curve"/>
      <point x="391" y="116" type="line"/>
      <point x="366" y="70"/>
      <point x="318" y="39"/>
    </contour>
  </outline>
</glyph>
<glyph name="r" format="2">
  <advance width="305"/>
  <unicode hex="0072"/>
  <outline>
    <contour>
      <point x="70" y="0" type="line"/>
      <point x="124" y="0" type="line"/>
      <point x="124" y="344" type="line"/>
      <point x="141" y="386"/>
      <point x="178" y="417"/>
      <point x="226" y="417" type="curve" smooth="yes"/>
      <point x="250" y="417"/>
      <point x="272" y="411"/>
      <point x="293" y="402" type="curve"/>
      <point x="293" y="464" type="line"/>
      <point x="274" y="471"/>
      <point x="255" y="474"/>
      <point x="234" y="474" type="curve" smooth="yes"/>
      <point x="188" y="474"/>
      <point x="142" y="445"/>
      <point x="124" y="397" type="curve"/>
      <point x="124" y="464" type="line"/>
      <point x="70" y="464" type="line"/>
    </contour>
  </outline>
</glyph>
<glyph name="s" format="2">
  <advance width="377"/>
  <unicode hex="0073"/>
  <outline>
    <contour>
      <point x="183" y="-10" type="curve" smooth="yes"/>
      <point x="279" y="-10"/>
      <point x="336" y="43"/>
      <point x="336" y="124" type="curve" smooth="yes"/>
      <point x="336" y="194"/>
      <point x="294" y="234"/>
      <point x="201" y="264" type="curve" smooth="yes"/>
      <point x="185" y="269" type="line" smooth="yes"/>
      <point x="125" y="289"/>
      <point x="100" y="315"/>
      <point x="100" y="353" type="curve" smooth="yes"/>
      <point x="100" y="400"/>
      <point x="134" y="428"/>
      <point x="192" y="428" type="curve" smooth="yes"/>
      <point x="239" y="428"/>
      <point x="284" y="416"/>
      <point x="323" y="389" type="curve"/>
      <point x="323" y="444" type="line"/>
      <point x="281" y="464"/>
      <point x="236" y="475"/>
      <point x="189" y="475" type="curve" smooth="yes"/>
      <point x="98" y="475"/>
      <point x="45" y="427"/>
      <point x="45" y="350" type="curve" smooth="yes"/>
      <point x="45" y="284"/>
      <point x="83" y="246"/>
      <point x="167" y="219" type="curve" smooth="yes"/>
      <point x="182" y="214" type="line" smooth="yes"/>
      <point x="249" y="193"/>
      <point x="281" y="164"/>
      <point x="281" y="120" type="curve" smooth="yes"/>
      <point x="281" y="68"/>
      <point x="243" y="37"/>
      <point x="182" y="37" type="curve" smooth="yes"/>
      <point x="131" y="37"/>
      <point x="83" y="52"/>
      <point x="42" y="82" type="curve"/>
      <point x="42" y="28" type="line"/>
      <point x="85" y="4"/>
      <point x="133" y="-10"/>
    </contour>
  </outline>
</glyph>
<glyph name="t" format="2">
  <advance width="296"/>
  <unicode hex="0074"/>
  <outline>
    <contour>
      <point x="185" y="-9" type="curve" smooth="yes"/>
      <point x="213" y="-9"/>
      <point x="240" y="-3"/>
      <point x="264" y="12" type="curve"/>
      <point x="264" y="64" type="line"/>
      <point x="243" y="49"/>
      <point x="222" y="42"/>
      <point x="197" y="42" type="curve" smooth="yes"/>
      <point x="164" y="42"/>
      <point x="143" y="63"/>
      <point x="143" y="98" type="curve" smooth="yes"/>
      <point x="143" y="414" type="line"/>
      <point x="264" y="414" type="line"/>
      <point x="264" y="464" type="line"/>
      <point x="143" y="464" type="line"/>
      <point x="143" y="617" type="line"/>
      <point x="89" y="617" type="line"/>
      <point x="89" y="464" type="line"/>
      <point x="16" y="464" type="line"/>
      <point x="16" y="414" type="line"/>
      <point x="89" y="414" type="line"/>
      <point x="89" y="89" type="line" smooth="yes"/>
      <point x="89" y="29"/>
      <point x="126" y="-9"/>
    </contour>
  </outline>
</glyph>
<glyph name="v" format="2">
  <advance width="459"/>
  <unicode hex="0076"/>
  <outline>
    <contour>
      <point x="202" y="0" type="line"/>
      <point x="257" y="0" type="line"/>
      <point x="440" y="464" type="line"/>
      <point x="385" y="464" type="line"/>
      <point x="246" y="108" type="line"/>
      <point x="232" y="67" type="line"/>
      <point x="217" y="108" type="line"/>
      <point x="78" y="464" type="line"/>
      <point x="19" y="464" type="line"/>
    </contour>
  </outline>
</glyph>
<glyph name="w" format="2">
  <advance width="726"/>
  <unicode hex="0077"/>
  <outline>
    <contour>
      <point x="174" y="0" type="line"/>
      <point x="233" y="0" type="line"/>
      <point x="351" y="347" type="line"/>
      <point x="364" y="393" type="line"/>
      <point x="376" y="347" type="line"/>
      <point x="492" y="0" type="line"/>
      <point x="551" y="0" type="line"/>
      <point x="706" y="464" type="line"/>
      <point x="655" y="464" type="line"/>
      <point x="535" y="108" type="line"/>
      <point x="524" y="66" type="line"/>
      <point x="512" y="108" type="line"/>
      <point x="394" y="464" type="line"/>
      <point x="337" y="464" type="line"/>
      <point x="219" y="108" type="line"/>
      <point x="207" y="65" type="line"/>
      <point x="195" y="108" type="line"/>
      <point x="76" y="464" type="line"/>
      <point x="19" y="464" type="line"/>
    </contour>
  </outline>
</glyph>
<glyph name="x" format="2">
  <advance width="442"/>
  <unicode hex="0078"/>
  <outline>
    <contour>
      <point x="22" y="0" type="line"/>
      <point x="82" y="0" type="line"/>
      <point x="195" y="163" type="line"/>
      <point x="219" y="199" type="line"/>
      <point x="243" y="163" type="line"/>
      <point x="355" y="0" type="line"/>
      <point x="420" y="0" type="line"/>
      <point x="252" y="241" type="line"/>
      <point x="405" y="464" type="line"/>
      <point x="342" y="464" type="line"/>
      <point x="245" y="320" type="line"/>
      <point x="220" y="283" type="line"/>
      <point x="194" y="320" type="line"/>
      <point x="98" y="464" type="line"/>
      <point x="33" y="464" type="line"/>
      <point x="188" y="238" type="line"/>
    </contour>
  </outline>
</glyph>
<glyph name="y" format="2">
  <advance width="456"/>
  <unicode hex="0079"/>
  <outline>
    <contour>
      <point x="1" y="-216" type="line" smooth="yes"/>
      <point x="114" y="-216"/>
      <point x="189" y="-163"/>
      <point x="256" y="6" type="curve" smooth="yes"/>
      <point x="437" y="464" type="line"/>
      <point x="382" y="464" type="line"/>
      <point x="243" y="108" type="line"/>
      <point x="228" y="66" type="line"/>
      <point x="214" y="108" type="line"/>
      <point x="74" y="464" type="line"/>
      <point x="16" y="464" type="line"/>
      <point x="191" y="19" type="line"/>
      <point x="199" y="-1" type="line"/>
      <point x="142" y="-127"/>
      <point x="85" y="-166"/>
      <point x="1" y="-166" type="curve" smooth="yes"/>
      <point x="-7" y="-166" type="line"/>
      <point x="-7" y="-216" type="line"/>
    </contour>
  </outline>
</glyph>
<glyph name="z" format="2">
  <advance width="427"/>
  <unicode hex="007A"/>
  <outline>
    <contour>
      <point x="42" y="0" type="line"/>
      <point x="385" y="0" type="line"/>
      <point x="385" y="50" type="line"/>
      <point x="116" y="50" type="line"/>
      <point x="138" y="79" type="line"/>
      <point x="380" y="427" type="line"/>
      <point x="380" y="464" type="line"/>
      <point x="46" y="464" type="line"/>
      <point x="46" y="414" type="line"/>
      <point x="306" y="414" type="line"/>
      <point x="284" y="384" type="line"/>
      <point x="42" y="37" type="line"/>
    </contour>
  </outline>
</glyph>
<glyph name="braceleft" format="2">
  <advance width="443"/>
  <unicode hex="007B"/>
  <outline>
    <contour>
      <point x="376" y="-220" type="curve" smooth="yes"/>
      <point x="403" y="-220" type="line"/>
      <point x="403" y="-172" type="line"/>
      <point x="375" y="-172" type="line" smooth="yes"/>
      <point x="279" y="-172"/>
      <point x="229" y="-124"/>
      <point x="235" y="-25" type="curve" smooth="yes"/>
      <point x="243" y="89" type="line" smooth="yes"/>
      <point x="249" y="174"/>
      <point x="204" y="227"/>
      <point x="127" y="252" type="curve"/>
      <point x="127" y="253" type="line"/>
      <point x="204" y="273"/>
      <point x="250" y="325"/>
      <point x="243" y="414" type="curve" smooth="yes"/>
      <point x="235" y="528" type="line" smooth="yes"/>
      <point x="229" y="627"/>
      <point x="279" y="675"/>
      <point x="375" y="675" type="curve" smooth="yes"/>
      <point x="403" y="675" type="line"/>
      <point x="403" y="723" type="line"/>
      <point x="376" y="723" type="line" smooth="yes"/>
      <point x="242" y="723"/>
      <point x="170" y="661"/>
      <point x="179" y="533" type="curve" smooth="yes"/>
      <point x="187" y="414" type="line" smooth="yes"/>
      <point x="192" y="336"/>
      <point x="146" y="293"/>
      <point x="59" y="279" type="curve"/>
      <point x="59" y="224" type="line"/>
      <point x="146" y="210"/>
      <point x="192" y="167"/>
      <point x="187" y="89" type="curve" smooth="yes"/>
      <point x="179" y="-30" type="line" smooth="yes"/>
      <point x="170" y="-158"/>
      <point x="242" y="-220"/>
    </contour>
  </outline>
</glyph>
<glyph name="braceright" format="2">
  <advance width="443"/>
  <unicode hex="007D"/>
  <outline>
    <contour>
      <point x="40" y="-220" type="line"/>
      <point x="67" y="-220" type="line" smooth="yes"/>
      <point x="201" y="-220"/>
      <point x="273" y="-158"/>
      <point x="264" y="-30" type="curve" smooth="yes"/>
      <point x="256" y="88" type="line" smooth="yes"/>
      <point x="251" y="167"/>
      <point x="297" y="210"/>
      <point x="384" y="224" type="curve"/>
      <point x="384" y="279" type="line"/>
      <point x="297" y="292"/>
      <point x="251" y="335"/>
      <point x="256" y="414" type="curve" smooth="yes"/>
      <point x="264" y="532" type="line" smooth="yes"/>
      <point x="273" y="661"/>
      <point x="201" y="722"/>
      <point x="67" y="722" type="curve" smooth="yes"/>
      <point x="40" y="722" type="line"/>
      <point x="40" y="674" type="line"/>
      <point x="68" y="674" type="line" smooth="yes"/>
      <point x="164" y="674"/>
      <point x="214" y="626"/>
      <point x="208" y="527" type="curve" smooth="yes"/>
      <point x="200" y="414" type="line" smooth="yes"/>
      <point x="194" y="325"/>
      <point x="239" y="273"/>
      <point x="316" y="252" type="curve"/>
      <point x="316" y="251" type="line"/>
      <point x="239" y="228"/>
      <point x="193" y="175"/>
      <point x="200" y="88" type="curve" smooth="yes"/>
      <point x="208" y="-25" type="line" smooth="yes"/>
      <point x="214" y="-124"/>
      <point x="164" y="-172"/>
      <point x="68" y="-172" type="curve" smooth="yes"/>
      <point x="40" y="-172" type="line"/>
    </contour>
  </outline>
</glyph>
